<?xml version="1.0" encoding="UTF-8"?>
<!DOCTYPE svg PUBLIC "-//W3C//DTD SVG 1.1//EN" "http://www.w3.org/Graphics/SVG/1.1/DTD/svg11.dtd">
<svg xmlns="http://www.w3.org/2000/svg" version="1.1" width="512px" height="512px" style="shape-rendering:geometricPrecision; text-rendering:geometricPrecision; image-rendering:optimizeQuality; fill-rule:evenodd; clip-rule:evenodd" xmlns:xlink="http://www.w3.org/1999/xlink">
<g><path style="opacity:0.968" fill="#feeb98" d="M 227.5,-0.5 C 231.5,-0.5 235.5,-0.5 239.5,-0.5C 245.148,1.64984 248.981,5.64984 251,11.5C 251.667,26.8333 251.667,42.1667 251,57.5C 248.181,65.8109 242.348,70.1442 233.5,70.5C 224.652,70.1442 218.819,65.8109 216,57.5C 215.333,42.1667 215.333,26.8333 216,11.5C 217.08,9.00381 218.414,6.67047 220,4.5C 222.479,2.68589 224.979,1.01922 227.5,-0.5 Z"/></g>
<g><path style="opacity:0.959" fill="#fede54" d="M 97.5,23.5 C 103.233,22.8951 108.566,24.0617 113.5,27C 129.667,43.1667 145.833,59.3333 162,75.5C 167.206,85.468 165.706,94.3014 157.5,102C 150.5,105.333 143.5,105.333 136.5,102C 120,85.5 103.5,69 87,52.5C 80.9342,39.1872 84.4342,29.5205 97.5,23.5 Z"/></g>
<g><path style="opacity:0.959" fill="#fede54" d="M 360.5,23.5 C 373.71,22.5881 381.376,28.5881 383.5,41.5C 383.104,45.419 381.937,49.0857 380,52.5C 363.5,69 347,85.5 330.5,102C 314.6,108.238 304.934,103.071 301.5,86.5C 302.019,83.3988 302.853,80.3988 304,77.5C 320.138,60.3618 336.638,43.5285 353.5,27C 355.925,25.7874 358.259,24.6207 360.5,23.5 Z"/></g>
<g><path style="opacity:0.975" fill="#fecfc1" d="M 265.5,241.5 C 264.564,253.129 264.23,264.796 264.5,276.5C 243.5,276.5 222.5,276.5 201.5,276.5C 201.333,227.166 201.5,177.832 202,128.5C 204.289,109.544 214.956,99.544 234,98.5C 252.043,99.8753 262.376,109.542 265,127.5C 265.5,165.499 265.667,203.499 265.5,241.5 Z"/></g>
<g><path style="opacity:0.975" fill="#ffeb98" d="M 76.5,143.5 C 88.8378,143.333 101.171,143.5 113.5,144C 129.727,148.367 134.227,158.2 127,173.5C 124.222,176.807 120.722,178.974 116.5,180C 101.833,180.667 87.1667,180.667 72.5,180C 61.6483,175.8 57.4816,167.966 60,156.5C 62.7576,148.565 68.2576,144.232 76.5,143.5 Z"/></g>
<g><path style="opacity:0.976" fill="#ffeb99" d="M 353.5,143.5 C 365.838,143.333 378.171,143.5 390.5,144C 401.377,145.378 407.377,151.544 408.5,162.5C 407.305,171.187 402.638,177.021 394.5,180C 379.833,180.667 365.167,180.667 350.5,180C 340.055,176.617 335.555,169.45 337,158.5C 339.57,150.089 345.07,145.089 353.5,143.5 Z"/></g>
<g><path style="opacity:0.981" fill="#ffbfb0" d="M 327.5,244.5 C 327.5,255.167 327.5,265.833 327.5,276.5C 306.5,276.5 285.5,276.5 264.5,276.5C 264.23,264.796 264.564,253.129 265.5,241.5C 274.005,222.586 288.339,216.086 308.5,222C 318.333,226.657 324.667,234.157 327.5,244.5 Z"/></g>
<g><path style="opacity:0.983" fill="#fecfc1" d="M 389.5,243.5 C 389.5,254.5 389.5,265.5 389.5,276.5C 368.833,276.5 348.167,276.5 327.5,276.5C 327.5,265.833 327.5,255.167 327.5,244.5C 333.899,225.126 347.233,217.293 367.5,221C 378.443,225.109 385.777,232.609 389.5,243.5 Z"/></g>
<g><path style="opacity:0.977" fill="#febfaf" d="M 452.5,276.5 C 431.5,276.5 410.5,276.5 389.5,276.5C 389.5,265.5 389.5,254.5 389.5,243.5C 399.39,220.699 415.724,214.532 438.5,225C 445.908,230.31 450.408,237.476 452,246.5C 452.5,256.494 452.666,266.494 452.5,276.5 Z"/></g>
<g><path style="opacity:0.995" fill="#ffe1d8" d="M 201.5,276.5 C 222.5,276.5 243.5,276.5 264.5,276.5C 285.5,276.5 306.5,276.5 327.5,276.5C 348.167,276.5 368.833,276.5 389.5,276.5C 410.5,276.5 431.5,276.5 452.5,276.5C 452.667,316.168 452.5,355.835 452,395.5C 446.518,447.631 419.685,483.798 371.5,504C 361.905,507.314 352.238,509.814 342.5,511.5C 332.167,511.5 321.833,511.5 311.5,511.5C 273.655,505.749 243.989,487.082 222.5,455.5C 212.149,438.62 205.649,420.287 203,400.5C 202.824,375.761 202.324,351.094 201.5,326.5C 201.5,309.833 201.5,293.167 201.5,276.5 Z"/></g>
<g><path style="opacity:0.973" fill="#ffcec1" d="M 184.5,312.5 C 174.262,337.115 167.595,362.782 164.5,389.5C 147.827,371.657 131.66,353.324 116,334.5C 107.115,316.203 110.948,301.369 127.5,290C 139.728,284.658 151.395,285.658 162.5,293C 169.73,299.737 177.063,306.237 184.5,312.5 Z"/></g>
<g><path style="opacity:1" fill="#ffbfb0" d="M 184.5,312.5 C 190.167,317.167 195.833,321.833 201.5,326.5C 202.324,351.094 202.824,375.761 203,400.5C 205.649,420.287 212.149,438.62 222.5,455.5C 202.823,433.822 183.49,411.822 164.5,389.5C 167.595,362.782 174.262,337.115 184.5,312.5 Z"/></g>
</svg>
