<?xml version="1.0" encoding="UTF-8"?>
<!DOCTYPE svg PUBLIC "-//W3C//DTD SVG 1.1//EN" "http://www.w3.org/Graphics/SVG/1.1/DTD/svg11.dtd">
<svg xmlns="http://www.w3.org/2000/svg" version="1.1" width="245px" height="222px" style="shape-rendering:geometricPrecision; text-rendering:geometricPrecision; image-rendering:optimizeQuality; fill-rule:evenodd; clip-rule:evenodd" xmlns:xlink="http://www.w3.org/1999/xlink">
<g><path style="opacity:0.986" fill="#6d3918" d="M 129.5,11.5 C 136.288,10.1315 140.122,12.7981 141,19.5C 156.095,12.2168 171.929,10.0502 188.5,13C 202.259,15.2494 214.759,20.4161 226,28.5C 227.114,33.0411 226.114,37.0411 223,40.5C 209.875,55.9521 193.708,65.4521 174.5,69C 210.048,89.5879 222.881,119.755 213,159.5C 204.155,179.013 190.322,192.846 171.5,201C 148.438,210.668 124.271,213.168 99,208.5C 75.0207,203.917 54.5207,192.584 37.5,174.5C 17.5958,148.573 15.4291,121.573 31,93.5C 44.5915,74.7679 62.7581,62.6013 85.5,57C 94.0674,55.0667 102.734,53.9 111.5,53.5C 111.756,51.2075 111.423,49.0408 110.5,47C 112.49,42.0866 114.49,37.0866 116.5,32C 115.366,30.984 115.699,30.3173 117.5,30C 117.167,29.6667 116.833,29.3333 116.5,29C 120.311,22.7014 124.645,16.8681 129.5,11.5 Z"/></g>
<g><path style="opacity:1" fill="#2aab49" d="M 164.5,26.5 C 179.735,25.1805 194.068,28.0138 207.5,35C 184.302,57.6847 158.969,60.5181 131.5,43.5C 141.027,34.9036 152.027,29.2369 164.5,26.5 Z"/></g>
<g><path style="opacity:1" fill="#fcb912" d="M 103.5,68.5 C 106.898,68.1796 110.232,68.513 113.5,69.5C 115.1,76.2122 119.1,78.2122 125.5,75.5C 127.415,73.9288 128.415,71.9288 128.5,69.5C 154.342,72.3345 175.509,83.6678 192,103.5C 209.356,132.239 205.19,157.406 179.5,179C 140.648,202.627 101.981,202.293 63.5,178C 38.4386,160.149 30.6053,136.649 40,107.5C 48.5329,92.1413 61.0329,81.308 77.5,75C 86.0069,71.6054 94.6736,69.4387 103.5,68.5 Z"/></g>
<g><path style="opacity:1" fill="#703b19" d="M 82.5,93.5 C 91.6777,93.3384 98.8443,97.0051 104,104.5C 105.949,112.159 103.115,115.659 95.5,115C 92.8333,113.667 90.8333,111.667 89.5,109C 88.3333,108.833 87.1667,108.667 86,108.5C 82.0749,109.597 78.2416,110.931 74.5,112.5C 68.6016,111.72 66.4349,108.387 68,102.5C 72.0527,98.066 76.886,95.066 82.5,93.5 Z"/></g>
<g><path style="opacity:1" fill="#6f3b19" d="M 149.5,102.5 C 159.275,101.693 166.775,105.36 172,113.5C 173.82,119.329 171.82,122.996 166,124.5C 162.023,123.859 159.189,121.692 157.5,118C 156.271,117.219 154.938,116.719 153.5,116.5C 150.4,117.758 147.4,119.258 144.5,121C 136.19,121.244 133.69,117.41 137,109.5C 140.863,106.435 145.03,104.102 149.5,102.5 Z"/></g>
<g><path style="opacity:1" fill="#6f3b19" d="M 116.5,127.5 C 120.315,126.829 123.149,128.162 125,131.5C 124.817,136.203 124.984,140.87 125.5,145.5C 124.647,152.103 120.98,154.27 114.5,152C 109.28,147.084 108.113,141.25 111,134.5C 112.371,131.734 114.204,129.401 116.5,127.5 Z"/></g>
</svg>
